<svg width="72" height="72" viewBox="0 0 72 72" fill="none" xmlns="http://www.w3.org/2000/svg">
<path d="M30.9859 31.4652C29.3265 31.4652 27.8306 30.5447 27.0855 29.0641C26.005 26.9136 26.8707 24.2842 29.0189 23.2001C29.6272 22.8949 30.2981 22.735 30.9787 22.7333C31.7879 22.7309 32.5816 22.9542 33.2709 23.378C33.9601 23.8019 34.5175 24.4095 34.8806 25.1326C35.9643 27.2834 35.0954 29.9143 32.9472 30.9954C32.3391 31.3031 31.6674 31.464 30.9859 31.4652ZM25.8653 40.3891C25.7798 40.3891 25.6974 40.3862 25.6118 40.3834C23.2134 40.2434 21.3685 38.1767 21.5055 35.7742C21.6409 33.3806 23.692 31.5216 26.1098 31.663C28.5111 31.7969 30.3532 33.8665 30.2178 36.269C30.0854 38.5816 28.171 40.3891 25.8653 40.3891ZM31.0188 49.2863C30.1695 49.2869 29.3386 49.0385 28.6289 48.5721C28.1489 48.2589 27.7357 47.8536 27.4133 47.3797C27.0908 46.9059 26.8655 46.3728 26.7503 45.8113C26.5116 44.6714 26.7339 43.5044 27.3715 42.5281C27.7687 41.9218 28.3106 41.4239 28.9484 41.0795C29.5862 40.7352 30.2997 40.5551 31.0245 40.5556C31.8741 40.5556 32.703 40.8047 33.4143 41.2716C33.8952 41.5843 34.309 41.9896 34.6318 42.4637C34.9546 42.9379 35.1799 43.4715 35.2947 44.0335C35.5346 45.1737 35.312 46.3386 34.6718 47.3155C34.2752 47.9223 33.7334 48.4205 33.0954 48.7647C32.4575 49.1088 31.7436 49.2881 31.0188 49.2863ZM41.3093 49.2656C40.5006 49.2677 39.7073 49.044 39.0187 48.6199C38.3302 48.1957 37.7737 47.5878 37.4118 46.8645C36.8862 45.8248 36.7995 44.6417 37.1644 43.5326C37.5281 42.425 38.3057 41.5279 39.3451 41.002C39.9532 40.6943 40.625 40.5338 41.3064 40.5334C42.1157 40.5308 42.9095 40.7543 43.5985 41.1789C44.2874 41.6035 44.844 42.2121 45.2053 42.9362C46.2862 45.0853 45.4202 47.7147 43.272 48.7987C42.663 49.1048 41.9909 49.2647 41.3093 49.2656ZM46.4363 40.3451C46.3493 40.3451 46.2669 40.3393 46.1846 40.3364C43.78 40.2008 41.938 38.1309 42.0748 35.7313C42.2104 33.3363 44.263 31.4775 46.6808 31.6187C47.253 31.6495 47.8135 31.7936 48.3296 32.0426C48.8458 32.2917 49.3073 32.6408 49.6875 33.0696C50.0703 33.4966 50.3646 33.9955 50.5531 34.5371C50.7416 35.0788 50.8206 35.6525 50.7856 36.2249C50.656 38.5361 48.7437 40.3451 46.4363 40.3451ZM41.2652 31.445C40.4185 31.445 39.5911 31.199 38.8768 30.729C36.8626 29.4077 36.3018 26.6973 37.6212 24.6839C38.018 24.0778 38.5597 23.5802 39.1972 23.2361C39.8347 22.8919 40.548 22.7121 41.2724 22.7128C42.122 22.7128 42.9497 22.9605 43.6608 23.4271C45.6736 24.7455 46.2375 27.4574 44.9182 29.471C44.1069 30.704 42.7435 31.445 41.2652 31.445ZM26.617 15.2381C27.1604 16.3135 26.7261 17.6273 25.6527 18.1665C25.3973 18.2955 25.1189 18.3729 24.8336 18.3944C24.5482 18.4158 24.2614 18.3808 23.9895 18.2913C23.7177 18.2018 23.4661 18.0597 23.2493 17.873C23.0324 17.6863 22.8544 17.4586 22.7255 17.2031C22.4648 16.6865 22.42 16.0875 22.6008 15.5378C22.7817 14.9881 23.1735 14.5327 23.69 14.2718C24.7634 13.7327 26.0767 14.1627 26.617 15.2381ZM13.4096 33.8717C14.6126 33.9397 15.5313 34.9707 15.4636 36.1728C15.3959 37.3764 14.3637 38.2954 13.1625 38.2291C11.9606 38.1586 11.0434 37.129 11.1096 35.9251C11.1773 34.7247 12.208 33.8043 13.4096 33.8717ZM22.936 54.6327C23.0927 54.3932 23.2951 54.1869 23.5316 54.0257C23.7682 53.8644 24.0342 53.7514 24.3144 53.6931C24.5947 53.6349 24.8837 53.6324 25.1648 53.686C25.446 53.7395 25.7139 53.848 25.9531 54.0052C26.9603 54.6638 27.2414 56.016 26.5804 57.0252C25.9209 58.0326 24.569 58.3125 23.5619 57.6542C23.0786 57.3362 22.7413 56.8395 22.624 56.2731C22.5066 55.7066 22.6189 55.1168 22.936 54.633V54.6327ZM45.6731 56.7599C45.1296 55.686 45.5639 54.3753 46.6358 53.833C47.7153 53.291 49.0242 53.7241 49.5648 54.7963C50.108 55.8717 49.6734 57.1856 48.5986 57.7247C48.3432 57.854 48.0649 57.9315 47.7795 57.953C47.4941 57.9744 47.2073 57.9394 46.9355 57.8497C46.6637 57.7601 46.4123 57.6177 46.1956 57.4307C45.979 57.2436 45.8014 57.0157 45.6731 56.7599ZM58.879 38.1263C57.6746 38.0583 56.7588 37.027 56.8264 35.8252C56.8421 35.5391 56.9141 35.2589 57.0383 35.0007C57.1625 34.7425 57.3364 34.5114 57.55 34.3205C57.7637 34.1296 58.0129 33.9827 58.2834 33.8883C58.5539 33.7939 58.8404 33.7538 59.1264 33.7703C60.3279 33.8366 61.2495 34.8676 61.1819 36.0726C61.1156 37.2761 60.0805 38.1937 58.879 38.126V38.1263ZM49.3554 17.3653C49.1994 17.6068 48.9971 17.815 48.7603 17.978C48.5234 18.141 48.2567 18.2556 47.9753 18.3151C47.694 18.3745 47.4037 18.3778 47.1212 18.3246C46.8386 18.2714 46.5694 18.1628 46.3289 18.0051C46.0885 17.8474 45.8816 17.6437 45.7203 17.4058C45.5589 17.1678 45.4462 16.9002 45.3887 16.6185C45.3311 16.3368 45.3299 16.0465 45.385 15.7643C45.4402 15.4821 45.5506 15.2136 45.7099 14.9743C45.8666 14.7347 46.0689 14.5284 46.3053 14.3671C46.5418 14.2058 46.8077 14.0927 47.0879 14.0343C47.3681 13.9758 47.6571 13.9732 47.9383 14.0266C48.2195 14.08 48.4874 14.1883 48.7267 14.3453C49.7324 15.0068 50.0152 16.3575 49.3554 17.3653ZM21.8497 8.54785C22.0182 8.88207 22.0471 9.26955 21.93 9.62507C21.8129 9.9806 21.5595 10.2751 21.2253 10.4438C21.0598 10.5273 20.8795 10.5773 20.6946 10.5911C20.5097 10.6048 20.324 10.5819 20.1479 10.5238C19.9719 10.4656 19.8091 10.3733 19.6688 10.2521C19.5285 10.131 19.4135 9.98332 19.3303 9.81764C19.1621 9.48359 19.1333 9.09641 19.2504 8.74119C19.3675 8.38596 19.6208 8.09174 19.9547 7.92318C20.2889 7.75511 20.6761 7.72649 21.0314 7.8436C21.3867 7.96071 21.681 8.21399 21.8497 8.54785ZM5.23355 34.6588C5.4185 34.6691 5.5996 34.7158 5.76649 34.7962C5.93338 34.8766 6.08278 34.9891 6.20615 35.1273C6.32952 35.2655 6.42443 35.4266 6.48546 35.6015C6.54648 35.7764 6.57242 35.9617 6.5618 36.1466C6.51601 36.9242 5.85044 37.5224 5.07457 37.4737C4.88965 37.4637 4.70853 37.4173 4.54159 37.3372C4.37466 37.257 4.2252 37.1447 4.10181 37.0066C3.97841 36.8685 3.88351 36.7074 3.82256 36.5325C3.7616 36.3577 3.73579 36.1725 3.7466 35.9876C3.76785 35.6143 3.93637 35.2647 4.21516 35.0156C4.49395 34.7664 4.86022 34.6381 5.23355 34.6588ZM19.5293 62.1101C19.6308 61.9548 19.7621 61.8211 19.9154 61.7166C20.0688 61.6122 20.2412 61.5391 20.4229 61.5014C20.6046 61.4638 20.792 61.4624 20.9742 61.4974C21.1564 61.5324 21.3299 61.603 21.4848 61.7052C21.6397 61.807 21.7729 61.9383 21.877 62.0917C21.9811 62.2451 22.0539 62.4174 22.0914 62.599C22.1288 62.7805 22.1301 62.9676 22.0952 63.1496C22.0603 63.3316 21.9899 63.505 21.888 63.6598C21.6828 63.9725 21.362 64.191 20.9958 64.2672C20.6297 64.3435 20.2483 64.2713 19.9354 64.0665C19.6223 63.8607 19.4038 63.5391 19.3276 63.1723C19.2515 62.8055 19.324 62.4235 19.5293 62.1101ZM50.4409 63.4536C50.0904 62.7538 50.3703 61.9056 51.0667 61.5563C51.2319 61.4726 51.412 61.4225 51.5966 61.4086C51.7812 61.3948 51.9668 61.4175 52.1426 61.4755C52.3184 61.5336 52.481 61.6258 52.6211 61.7468C52.7612 61.8679 52.876 62.0154 52.9589 62.1809C53.0426 62.3462 53.0928 62.5263 53.1068 62.711C53.1208 62.8957 53.0982 63.0813 53.0404 63.2572C52.9825 63.4332 52.8905 63.596 52.7696 63.7363C52.6487 63.8767 52.5014 63.9918 52.3359 64.0751C52.0022 64.2438 51.6151 64.2731 51.2598 64.1566C50.9045 64.04 50.6099 63.7872 50.4409 63.4536ZM67.0556 37.3427C66.6817 37.3212 66.3315 37.1521 66.0822 36.8726C65.8328 36.5931 65.7047 36.226 65.7259 35.852C65.7362 35.6666 65.783 35.4852 65.8636 35.318C65.9443 35.1508 66.0571 35.0011 66.1958 34.8777C66.3344 34.7542 66.496 34.6594 66.6714 34.5986C66.8468 34.5378 67.0325 34.5123 67.2178 34.5234C67.9936 34.5646 68.5898 35.2348 68.5411 36.0124C68.4999 36.7888 67.8315 37.3838 67.0556 37.3427ZM52.763 9.8882C52.3331 10.5408 51.4584 10.7234 50.809 10.2949C50.4963 10.0892 50.278 9.7679 50.2018 9.40147C50.1257 9.03505 50.198 8.65339 50.4029 8.3402C50.5043 8.18524 50.6353 8.05183 50.7884 7.94762C50.9415 7.84341 51.1137 7.77046 51.2951 7.73294C51.4764 7.69543 51.6634 7.69409 51.8453 7.72901C52.0272 7.76393 52.2004 7.83442 52.3549 7.93642C52.6676 8.14135 52.8862 8.46197 52.9627 8.8279C53.0392 9.19383 52.9674 9.57517 52.763 9.8882ZM22.2768 25.0782C23.4605 25.8529 23.7917 27.4438 23.0144 28.6284C22.8301 28.9105 22.5919 29.1535 22.3135 29.3434C22.0351 29.5333 21.7219 29.6663 21.392 29.7348C21.062 29.8034 20.7218 29.8061 20.3907 29.7429C20.0597 29.6796 19.7445 29.5516 19.463 29.3662C18.2776 28.5915 17.9479 27.0017 18.7252 25.8146C19.5028 24.6318 21.0928 24.2989 22.2768 25.0782ZM19.7545 42.554C21.0194 41.915 22.5625 42.4262 23.1998 43.6899C23.836 44.9554 23.328 46.499 22.0631 47.137C20.7999 47.7746 19.2551 47.2637 18.6192 46.0011C17.9816 44.7359 18.4896 43.1919 19.7545 42.5543V42.554ZM33.4374 53.4767C33.5186 52.0626 34.7319 50.9815 36.1437 51.0595C37.5604 51.139 38.641 52.3544 38.56 53.7667C38.5412 54.1033 38.4563 54.433 38.31 54.7367C38.1637 55.0405 37.9589 55.3124 37.7074 55.5369C37.4559 55.7614 37.1626 55.9342 36.8443 56.0453C36.526 56.1563 36.1889 56.2035 35.8523 56.1842C34.4388 56.1033 33.3582 54.8911 33.4377 53.477L33.4374 53.4767ZM50.0155 46.925C48.8318 46.1454 48.5004 44.5562 49.2748 43.3702C50.0524 42.1874 51.6422 41.8576 52.8247 42.6338C54.0101 43.4085 54.3398 44.9994 53.564 46.1837C52.7878 47.3711 51.1978 47.6994 50.0155 46.9247V46.925ZM52.5361 29.446C51.2715 30.0836 49.7281 29.5756 49.0922 28.3101C48.4546 27.0461 48.9612 25.5024 50.2275 24.8662C51.4938 24.2269 53.0355 24.7366 53.6757 26.0018C54.3105 27.2655 53.801 28.8095 52.5361 29.4457V29.446ZM38.6706 18.5233C38.5894 19.9359 37.3764 21.0203 35.9597 20.939C35.6234 20.9198 35.2941 20.8345 34.9908 20.6881C34.6874 20.5416 34.4159 20.3368 34.1916 20.0854C33.9674 19.834 33.7949 19.5409 33.684 19.2228C33.5731 18.9047 33.5259 18.5679 33.5451 18.2316C33.626 16.816 34.8365 15.7346 36.25 15.8144C36.9301 15.853 37.567 16.16 38.0209 16.6679C38.4747 17.1759 38.7084 17.8432 38.6706 18.5233ZM12.7253 20.4751C13.5556 21.0171 13.7851 22.1322 13.242 22.9614C13.1129 23.1588 12.9461 23.3287 12.7513 23.4615C12.5564 23.5943 12.3372 23.6873 12.1063 23.7352C11.8754 23.7831 11.6373 23.7849 11.4056 23.7406C11.174 23.6963 10.9534 23.6067 10.7565 23.4769C9.92766 22.9334 9.69495 21.8183 10.2398 20.9906C10.7845 20.1626 11.8961 19.9285 12.7253 20.4751ZM10.9953 48.5274C11.2058 48.4209 11.4352 48.357 11.6705 48.3393C11.9058 48.3217 12.1422 48.3506 12.3663 48.4245C12.5903 48.4984 12.7976 48.6158 12.9762 48.77C13.1547 48.9241 13.3012 49.112 13.407 49.3229C13.6211 49.7485 13.6575 50.2418 13.5081 50.6942C13.3588 51.1467 13.0358 51.5213 12.6104 51.7357C11.7254 52.1804 10.6462 51.827 10.1998 50.9417C9.75543 50.0564 10.1102 48.9738 10.9953 48.5274ZM34.2311 64.0532C34.2441 63.8177 34.3033 63.5871 34.4056 63.3746C34.5078 63.162 34.651 62.9717 34.8269 62.8146C35.0028 62.6575 35.208 62.5367 35.4307 62.459C35.6534 62.3814 35.8893 62.3484 36.1247 62.3621C36.3601 62.3754 36.5907 62.4349 36.8031 62.5373C37.0155 62.6397 37.2056 62.783 37.3626 62.9589C37.5196 63.1349 37.6404 63.34 37.7181 63.5627C37.7958 63.7854 37.8288 64.0211 37.8153 64.2565C37.8025 64.4922 37.7433 64.7229 37.6411 64.9356C37.5389 65.1483 37.3957 65.3388 37.2198 65.496C37.0438 65.6532 36.8385 65.7742 36.6157 65.8519C36.3929 65.9296 36.157 65.9625 35.9214 65.9488C35.6858 65.9357 35.4551 65.8762 35.2426 65.7738C35.03 65.6713 34.8398 65.528 34.6828 65.3519C34.5258 65.1758 34.405 64.9704 34.3275 64.7476C34.25 64.5247 34.2173 64.2888 34.2311 64.0532ZM59.5624 51.5252C59.1646 51.2636 58.8868 50.8549 58.79 50.3888C58.6931 49.9226 58.7851 49.437 59.0458 49.0386C59.5904 48.2106 60.7035 47.9765 61.5326 48.5214C61.9301 48.7832 62.2077 49.1919 62.3045 49.658C62.4014 50.124 62.3096 50.6094 62.0493 51.008C61.9201 51.2053 61.7532 51.3752 61.5582 51.508C61.3632 51.6408 61.144 51.7339 60.913 51.7819C60.6821 51.8299 60.4439 51.8319 60.2122 51.7878C59.9804 51.7437 59.7596 51.6544 59.5624 51.5249V51.5252ZM61.2956 23.474C60.8696 23.6878 60.3763 23.7237 59.9238 23.5741C59.4713 23.4244 59.0967 23.1013 58.8822 22.6757C58.7761 22.4652 58.7125 22.2358 58.6952 22.0007C58.6778 21.7656 58.7069 21.5294 58.7809 21.3056C58.8549 21.0817 58.9723 20.8747 59.1263 20.6963C59.2804 20.5178 59.4681 20.3715 59.6788 20.2657C59.8892 20.1595 60.1185 20.0958 60.3535 20.0782C60.5885 20.0607 60.8247 20.0896 61.0486 20.1633C61.2724 20.2371 61.4795 20.3542 61.6581 20.508C61.8367 20.6618 61.9832 20.8493 62.0893 21.0597C62.5352 21.9468 62.1789 23.0276 61.2956 23.474ZM37.8769 7.94679C37.8499 8.42242 37.6351 8.86787 37.2797 9.18512C36.9244 9.50238 36.4575 9.66547 35.9819 9.6385C35.5062 9.61154 35.0608 9.39674 34.7435 9.04135C34.4263 8.68596 34.2632 8.2191 34.2902 7.74346C34.3478 6.75073 35.1942 5.99358 36.1852 6.05118C36.4208 6.06449 36.6514 6.12409 36.8639 6.22657C37.0765 6.32906 37.2667 6.47242 37.4238 6.64846C37.5809 6.8245 37.7018 7.02977 37.7795 7.25254C37.8573 7.47532 37.8904 7.71123 37.8769 7.94679Z" fill="black"/>
</svg>
