<svg width="28" height="31" viewBox="0 0 28 31" fill="none" xmlns="http://www.w3.org/2000/svg">
<path d="M25 0H3C1.4 0 0 1.35625 0 2.90625V28.0938C0 29.6437 1.4 31 3 31H25C26.6 31 28 29.6437 28 28.0938V2.90625C28 1.35625 26.6 0 25 0ZM8 26.35C8 26.7375 7.6 27.125 7.2 27.125H4.8C4.4 27.125 4 26.7375 4 26.35V24.025C4 23.6375 4.4 23.25 4.8 23.25H7.2C7.6 23.25 8 23.6375 8 24.025V26.35ZM8 18.6C8 18.9875 7.6 19.375 7.2 19.375H4.8C4.4 19.375 4 18.9875 4 18.6V16.275C4 15.8875 4.4 15.5 4.8 15.5H7.2C7.6 15.5 8 15.8875 8 16.275V18.6ZM16 26.35C16 26.7375 15.6 27.125 15.2 27.125H12.8C12.4 27.125 12 26.7375 12 26.35V24.025C12 23.6375 12.4 23.25 12.8 23.25H15.2C15.6 23.25 16 23.6375 16 24.025V26.35ZM16 18.6C16 18.9875 15.6 19.375 15.2 19.375H12.8C12.4 19.375 12 18.9875 12 18.6V16.275C12 15.8875 12.4 15.5 12.8 15.5H15.2C15.6 15.5 16 15.8875 16 16.275V18.6ZM24 26.35C24 26.7375 23.6 27.125 23.2 27.125H20.8C20.4 27.125 20 26.7375 20 26.35V16.275C20 15.8875 20.4 15.5 20.8 15.5H23.2C23.6 15.5 24 15.8875 24 16.275V26.35ZM24 10.85C24 11.2375 23.6 11.625 23.2 11.625H4.8C4.4 11.625 4 11.2375 4 10.85V4.65C4 4.2625 4.4 3.875 4.8 3.875H23.2C23.6 3.875 24 4.2625 24 4.65V10.85Z" fill="black"/>
</svg>
