<svg width="153" height="153" viewBox="0 0 153 153" fill="none" xmlns="http://www.w3.org/2000/svg">
<path d="M76.4012 61.6935C75.8337 52.9576 72.2309 45.0604 66.629 39.0392C63.8155 35.9546 60.4838 33.388 56.7581 31.4143C51.6009 28.6995 45.7267 27.1452 39.4839 27.1452C19.0515 27.1452 2.46774 43.7289 2.46774 64.1613C2.46774 72.502 5.2319 80.2016 9.87097 86.371C16.6332 95.3539 27.3922 101.177 39.4839 101.177C39.9285 101.177 40.3719 101.177 40.8166 101.153H40.8406C45.0363 85.9263 58.7571 74.6492 75.1673 74.0564C76.0313 70.9235 76.5 67.5918 76.5 64.1613C76.5 63.3226 76.4759 62.5081 76.4012 61.6935Z" fill="#FF826E"/>
<path d="M96.2419 31.4143C101.399 28.6995 107.273 27.1452 113.516 27.1452C133.949 27.1452 150.532 43.7289 150.532 64.1613C150.532 72.502 147.768 80.2016 143.129 86.371C136.367 95.3539 125.608 101.177 113.516 101.177C113.072 101.177 112.603 101.177 112.159 101.153C107.841 85.5323 93.5031 74.0323 76.5 74.0323C76.0554 74.0323 75.612 74.0323 75.1673 74.0564C76.0313 70.9235 76.5 67.5918 76.5 64.1613C76.5 54.4626 80.2257 45.6291 86.371 39.0392C89.1845 35.9546 92.5162 33.388 96.2419 31.4143Z" fill="#B4DD7F"/>
<path d="M113.516 41.9516L128.323 64.1613L113.516 69.0968V41.9516Z" fill="#FCD770"/>
<path d="M113.516 69.0968V86.371L98.7097 64.1613L113.516 69.0968Z" fill="#FCD770"/>
<path d="M128.323 64.1613L113.516 86.371V69.0968L128.323 64.1613Z" fill="#FCD770"/>
<path d="M113.516 41.9516V69.0968L98.7097 64.1613L113.516 41.9516Z" fill="#FCD770"/>
<path d="M112.159 101.153C113.047 104.311 113.516 107.618 113.516 111.048C113.516 131.481 96.9324 148.064 76.5 148.064C56.0676 148.064 39.4839 131.481 39.4839 111.048C39.4839 107.618 39.9526 104.311 40.8407 101.153C45.0363 85.9263 58.7571 74.6492 75.1673 74.0563C75.612 74.0322 76.0554 74.0322 76.5 74.0322C93.5031 74.0322 107.841 85.5323 112.159 101.153Z" fill="#FFC729"/>
<path d="M76.5988 83.9032C76.5735 83.9032 76.5241 83.9032 76.5 83.9032C69.886 83.9032 63.8408 86.2722 59.127 90.1955L55.6471 93.6754C51.7238 98.3892 49.3548 104.434 49.3548 111.048C49.3548 126.027 61.4465 138.144 76.4012 138.194H76.5C83.114 138.194 89.1592 135.825 93.873 131.901L97.3529 128.421C101.276 123.708 103.645 117.662 103.645 111.048C103.645 96.0696 91.5535 83.9526 76.5988 83.9032Z" fill="#FCD770"/>
<path d="M74.0323 88.8387V93.7742H66.629V128.323H74.0323V133.258H78.9677V128.323C84.4117 128.323 88.8387 123.896 88.8387 118.452C88.8387 115.508 87.5434 112.857 85.4901 111.048C87.5434 109.24 88.8387 106.589 88.8387 103.645C88.8387 98.2012 84.4117 93.7742 78.9677 93.7742V88.8387H74.0323ZM78.9677 123.387H71.5645V113.516H78.9677C81.6897 113.516 83.9032 115.73 83.9032 118.452C83.9032 121.174 81.6897 123.387 78.9677 123.387ZM83.9032 103.645C83.9032 106.367 81.6897 108.581 78.9677 108.581H71.5645V98.7097H78.9677C81.6897 98.7097 83.9032 100.923 83.9032 103.645Z" fill="black"/>
<path d="M153 64.1613C153 42.3914 135.286 24.6774 113.516 24.6774C108.279 24.6774 103.287 25.7233 98.7097 27.585V19.7419H93.7742V30.0202C92.0439 31.0239 90.3907 32.1421 88.8387 33.388V14.8065H83.9032V38.1343C82.0247 40.2683 80.3546 42.5854 78.9677 45.0905V0H74.0323V45.0881C72.6454 42.583 70.9753 40.2659 69.0968 38.1319V14.8065H64.1613V33.388C62.6093 32.1421 60.9561 31.0239 59.2258 30.0202V19.7419H54.2903V27.585C49.7127 25.7233 44.7206 24.6774 39.4839 24.6774C17.714 24.6774 0 42.3914 0 64.1613C0 72.714 2.76416 80.6185 7.40323 87.0915V120.919H12.3387V92.7596C13.8786 94.2212 15.515 95.5804 17.2742 96.783V130.79H22.2097V99.611C23.8014 100.391 25.4426 101.081 27.1452 101.644V143.129H32.0806V102.925C33.9266 103.278 35.8244 103.473 37.7487 103.556C37.28 105.985 37.0161 108.484 37.0161 111.048C37.0161 132.818 54.7301 150.532 76.5 150.532C98.2699 150.532 115.984 132.818 115.984 111.048C115.984 108.484 115.72 105.985 115.251 103.556C117.178 103.473 119.073 103.275 120.919 102.925V143.129H125.855V101.644C127.557 101.081 129.199 100.391 130.79 99.6134V130.79H135.726V96.7793C137.485 95.578 139.121 94.2212 140.661 92.7572V120.919H145.597V87.0915C150.236 80.6185 153 72.714 153 64.1613ZM39.4839 29.6129C56.8545 29.6129 71.2319 42.5119 73.637 59.2258H52.7649L49.5271 65.7036L41.8721 47.845L32.6241 70.9669L25.4546 42.2842L15.7487 61.6936H5.0608C6.33443 43.7952 21.2674 29.6129 39.4839 29.6129ZM5.0608 66.629H18.8021L23.9026 56.4255L31.5396 86.9686L42.0336 60.7356L49.1849 77.4254L55.8158 64.1613H74.0323C74.0323 66.7182 73.7358 69.257 73.1828 71.732C57.1918 73.0719 43.8964 83.9647 39.0272 98.688C21.018 98.4482 6.32479 84.3744 5.0608 66.629ZM76.5 145.597C57.4485 145.597 41.9516 130.1 41.9516 111.048C41.9516 91.9969 57.4485 76.5 76.5 76.5C95.5515 76.5 111.048 91.9969 111.048 111.048C111.048 130.1 95.5515 145.597 76.5 145.597ZM113.973 98.688C109.104 83.9671 95.8082 73.0719 79.8172 71.7344C79.2642 69.2594 78.9677 66.723 78.9677 64.1613C78.9677 45.1098 94.4646 29.6129 113.516 29.6129C132.568 29.6129 148.065 45.1098 148.065 64.1613C148.065 83.0574 132.811 98.4386 113.973 98.688Z" fill="black"/>
<path d="M76.5 81.4355C69.5908 81.4355 62.8636 83.8707 57.5521 88.2953L60.7139 92.0861C65.1385 88.4025 70.7427 86.371 76.5 86.371C90.1075 86.371 101.177 97.4409 101.177 111.048C101.177 116.806 99.1459 122.412 95.4623 126.834L99.2507 129.996C103.678 124.687 106.113 117.96 106.113 111.048C106.113 94.7189 92.8295 81.4355 76.5 81.4355Z" fill="black"/>
<path d="M76.5 135.726C62.8925 135.726 51.8226 124.656 51.8226 111.048C51.8226 105.291 53.8541 99.6845 57.5377 95.2623L53.7493 92.1005C49.3223 97.4095 46.8871 104.137 46.8871 111.048C46.8871 127.378 60.1705 140.661 76.5 140.661C83.4092 140.661 90.1364 138.226 95.4479 133.802L92.2861 130.011C87.8615 133.694 82.2572 135.726 76.5 135.726Z" fill="black"/>
<path d="M95.7431 64.1613L113.516 90.8209L131.289 64.1613L113.516 37.5017L95.7431 64.1613ZM111.048 65.6711L102.557 62.8407L111.048 50.1031V65.6711ZM111.048 70.8765V78.2195L104.754 68.7763L111.048 70.8765ZM115.984 70.8765L122.279 68.7787L115.984 78.2195V70.8765ZM115.984 65.6711V50.0995L124.475 62.8383L115.984 65.6711Z" fill="black"/>
<path d="M7.40323 125.855H12.3387V130.79H7.40323V125.855Z" fill="black"/>
<path d="M17.2742 135.726H22.2097V140.661H17.2742V135.726Z" fill="black"/>
<path d="M27.1452 148.064H32.0807V153H27.1452V148.064Z" fill="black"/>
<path d="M140.661 125.855H145.597V130.79H140.661V125.855Z" fill="black"/>
<path d="M130.79 135.726H135.726V140.661H130.79V135.726Z" fill="black"/>
<path d="M120.919 148.064H125.855V153H120.919V148.064Z" fill="black"/>
<path d="M64.1613 4.93549H69.0968V9.87097H64.1613V4.93549Z" fill="black"/>
<path d="M83.9032 4.93549H88.8387V9.87097H83.9032V4.93549Z" fill="black"/>
</svg>
