<svg width="62" height="62" viewBox="0 0 62 62" fill="none" xmlns="http://www.w3.org/2000/svg">
<path fill-rule="evenodd" clip-rule="evenodd" d="M0 58.2222H62V62H0V58.2222Z" fill="#FF4343"/>
<path fill-rule="evenodd" clip-rule="evenodd" d="M57.9854 30.7057L39.4842 27.2944L45.7433 21.0215L27.1488 5.20468L11.2812 18.1949C11.0891 18.3649 10.8653 18.4952 10.6228 18.5783C10.3803 18.6614 10.1239 18.6956 9.86811 18.679C9.61237 18.6624 9.36242 18.5954 9.13263 18.4816C8.90283 18.3679 8.69773 18.2098 8.5291 18.0164C8.36046 17.823 8.23163 17.5981 8.15 17.3547C8.06837 17.1112 8.03555 16.854 8.05343 16.5978C8.07131 16.3416 8.13954 16.0914 8.25419 15.8617C8.36884 15.632 8.52765 15.4273 8.7215 15.2593L27.1799 0L48.4936 18.2651L55.0445 11.6998L57.9854 30.7057Z" fill="#FF4343"/>
<path fill-rule="evenodd" clip-rule="evenodd" d="M23.3404 19.2358H34.82V53.8479H23.3404V19.2358Z" fill="#FF4343"/>
<path fill-rule="evenodd" clip-rule="evenodd" d="M3.89008 30.9318H15.4903V53.848H3.89008V30.9318Z" fill="#FF4343"/>
<path fill-rule="evenodd" clip-rule="evenodd" d="M42.7908 38.729H54.2704V53.9025H42.7908V38.729Z" fill="#FF4343"/>
</svg>
