<svg width="42" height="42" viewBox="0 0 42 42" fill="none" xmlns="http://www.w3.org/2000/svg">
<path d="M24.2025 33.25C23.9411 33.2509 23.6828 33.1932 23.4465 33.0811C23.2103 32.9691 23.0022 32.8055 22.8375 32.6025L14.385 22.1025C14.1276 21.7894 13.9869 21.3966 13.9869 20.9912C13.9869 20.5859 14.1276 20.1931 14.385 19.88L23.135 9.37999C23.4321 9.02262 23.8589 8.79787 24.3216 8.75521C24.7844 8.71254 25.2451 8.85545 25.6025 9.15249C25.9599 9.44954 26.1846 9.87638 26.2273 10.3391C26.27 10.8019 26.1271 11.2626 25.83 11.62L18.0075 21L25.5675 30.38C25.7815 30.6369 25.9174 30.9497 25.9592 31.2814C26.001 31.6131 25.9469 31.9498 25.8033 32.2518C25.6597 32.5537 25.4326 32.8081 25.1489 32.9851C24.8653 33.162 24.5368 33.2539 24.2025 33.25Z" fill="black"/>
</svg>
