<svg width="62" height="60" viewBox="0 0 62 60" fill="none" xmlns="http://www.w3.org/2000/svg">
<g opacity="0.7">
<path fill-rule="evenodd" clip-rule="evenodd" d="M3.64706 56.25H61.7739V59.8837H3.64706V56.25Z" fill="#007304"/>
<path fill-rule="evenodd" clip-rule="evenodd" d="M58.0101 0.243744L40.6647 3.52499L46.5328 9.55874L29.0999 24.7725L14.2235 12.2775C14.0434 12.114 13.8337 11.9887 13.6063 11.9087C13.379 11.8288 13.1385 11.7959 12.8987 11.8119C12.659 11.8278 12.4246 11.8923 12.2092 12.0017C11.9937 12.1111 11.8015 12.2632 11.6434 12.4492C11.4853 12.6352 11.3645 12.8515 11.2879 13.0857C11.2114 13.3199 11.1806 13.5673 11.1974 13.8138C11.2142 14.0602 11.2781 14.3008 11.3856 14.5218C11.4931 14.7427 11.642 14.9397 11.8237 15.1012L29.129 29.7787L49.1113 12.21L55.2529 18.525L58.0101 0.243744Z" fill="#007304"/>
<path fill-rule="evenodd" clip-rule="evenodd" d="M43.7647 26.25H54.5272V52.0425H43.7647V26.25Z" fill="#007304"/>
<path fill-rule="evenodd" clip-rule="evenodd" d="M7.29413 30H18.1697V52.0425H7.29413V30Z" fill="#007304"/>
<path fill-rule="evenodd" clip-rule="evenodd" d="M25.5294 37.5H36.2919V52.095H25.5294V37.5Z" fill="#007304"/>
</g>
</svg>
